<?xml version="1.0" encoding="utf-8"?>
<svg xmlns="http://www.w3.org/2000/svg" style="margin: auto;  display: block; shape-rendering: auto;" width="288" height="63" preserveAspectRatio="xMidYMid">
<style type="text/css">
  text {
    text-anchor: middle; font-size: 33px; opacity: 0;
  }
</style>
<g style="transform-origin:144px 31.5px;transform:scale(1)">
<g transform="translate(144,31.5)">
  <g transform="translate(4,38)"><g class="path" style="transform: matrix(1, 0, 0, 1, 0, 0); transform-origin: -108.752px -1.71951px 0px; animation: 3.7037s linear -0.324786s infinite normal forwards running bounce-47a4c70d-9b0f-4429-bbeb-8e6572b54a15;"><path d="M9.02-10.12L9.02 0L2.63 0L2.63-23.20L9.02-23.20L9.02-13.07L17.50-13.07L17.50-23.20L23.90-23.20L23.90 0L17.50 0L17.50-10.12L9.02-10.12" fill="#ff3067" stroke="none" stroke-width="none" transform="translate(-122.01666259765625,9.880488844651444)" style="fill: rgb(255, 48, 103);"></path></g><g class="path" style="transform: matrix(1, 0, 0, 1, 0, 0); transform-origin: -84.3017px 0.535489px 0px; animation: 3.7037s linear -0.595442s infinite normal forwards running bounce-47a4c70d-9b0f-4429-bbeb-8e6572b54a15;"><path d="M48.10-9.35L48.10-9.35L48.10-9.35Q48.10-7.90 47.71-6.62L47.71-6.62L47.71-6.62Q47.32-5.35 46.64-4.27L46.64-4.27L46.64-4.27Q45.96-3.19 44.99-2.33L44.99-2.33L44.99-2.33Q44.02-1.47 42.87-0.87L42.87-0.87L42.87-0.87Q41.72-0.27 40.40 0.05L40.40 0.05L40.40 0.05Q39.09 0.37 37.71 0.37L37.71 0.37L37.71 0.37Q36.32 0.37 35.01 0.05L35.01 0.05L35.01 0.05Q33.71-0.27 32.56-0.87L32.56-0.87L32.56-0.87Q31.40-1.47 30.44-2.33L30.44-2.33L30.44-2.33Q29.47-3.19 28.79-4.27L28.79-4.27L28.79-4.27Q28.10-5.35 27.71-6.63L27.71-6.63L27.71-6.63Q27.33-7.91 27.33-9.35L27.33-9.35L27.33-9.35Q27.33-10.78 27.71-12.06L27.71-12.06L27.71-12.06Q28.10-13.34 28.79-14.42L28.79-14.42L28.79-14.42Q29.47-15.50 30.44-16.36L30.44-16.36L30.44-16.36Q31.40-17.23 32.56-17.82L32.56-17.82L32.56-17.82Q33.71-18.42 35.01-18.74L35.01-18.74L35.01-18.74Q36.32-19.06 37.71-19.06L37.71-19.06L37.71-19.06Q39.09-19.06 40.40-18.74L40.40-18.74L40.40-18.74Q41.72-18.42 42.87-17.82L42.87-17.82L42.87-17.82Q44.02-17.23 44.99-16.36L44.99-16.36L44.99-16.36Q45.96-15.50 46.64-14.42L46.64-14.42L46.64-14.42Q47.32-13.34 47.71-12.06L47.71-12.06L47.71-12.06Q48.10-10.78 48.10-9.35zM42.56-9.35L42.56-9.35L42.56-9.35Q42.56-10.12 42.47-10.98L42.47-10.98L42.47-10.98Q42.38-11.84 42.17-12.67L42.17-12.67L42.17-12.67Q41.96-13.50 41.60-14.27L41.60-14.27L41.60-14.27Q41.23-15.03 40.70-15.61L40.70-15.61L40.70-15.61Q40.17-16.18 39.43-16.52L39.43-16.52L39.43-16.52Q38.69-16.87 37.71-16.87L37.71-16.87L37.71-16.87Q36.77-16.87 36.05-16.52L36.05-16.52L36.05-16.52Q35.32-16.16 34.78-15.57L34.78-15.57L34.78-15.57Q34.24-14.99 33.88-14.21L33.88-14.21L33.88-14.21Q33.52-13.44 33.29-12.61L33.29-12.61L33.29-12.61Q33.06-11.78 32.97-10.93L32.97-10.93L32.97-10.93Q32.87-10.09 32.87-9.35L32.87-9.35L32.87-9.35Q32.87-8.60 32.97-7.76L32.97-7.76L32.97-7.76Q33.06-6.91 33.29-6.07L33.29-6.07L33.29-6.07Q33.52-5.24 33.88-4.47L33.88-4.47L33.88-4.47Q34.24-3.71 34.78-3.12L34.78-3.12L34.78-3.12Q35.32-2.53 36.05-2.18L36.05-2.18L36.05-2.18Q36.77-1.82 37.71-1.82L37.71-1.82L37.71-1.82Q38.67-1.82 39.41-2.17L39.41-2.17L39.41-2.17Q40.15-2.51 40.69-3.09L40.69-3.09L40.69-3.09Q41.23-3.67 41.59-4.43L41.59-4.43L41.59-4.43Q41.94-5.19 42.16-6.03L42.16-6.03L42.16-6.03Q42.38-6.86 42.47-7.72L42.47-7.72L42.47-7.72Q42.56-8.57 42.56-9.35" fill="#ff3067" stroke="none" stroke-width="none" transform="translate(-122.01666259765625,9.880488844651444)" style="fill: rgb(255, 48, 103);"></path></g><g class="path" style="transform: matrix(1, 0, 0, 1, 0, 0); transform-origin: -60.5917px 4.64549px 0px; animation: 3.7037s linear -0.649573s infinite normal forwards running bounce-47a4c70d-9b0f-4429-bbeb-8e6572b54a15;"><path d="M71.32-9.35L71.32-9.35L71.32-9.35Q71.32-7.32 70.71-5.54L70.71-5.54L70.71-5.54Q70.09-3.77 68.93-2.46L68.93-2.46L68.93-2.46Q67.77-1.14 66.10-0.39L66.10-0.39L66.10-0.39Q64.42 0.37 62.29 0.37L62.29 0.37L62.29 0.37Q60.67 0.37 59.30-0.27L59.30-0.27L59.30-0.27Q57.94-0.90 56.98-2.22L56.98-2.22L56.98 8.59L51.53 8.59L51.53-18.61L53.63-18.61L56.04-14.57L56.04-14.57Q56.40-15.58 57.02-16.41L57.02-16.41L57.02-16.41Q57.64-17.24 58.45-17.83L58.45-17.83L58.45-17.83Q59.26-18.42 60.24-18.74L60.24-18.74L60.24-18.74Q61.21-19.06 62.29-19.06L62.29-19.06L62.29-19.06Q64.42-19.06 66.10-18.30L66.10-18.30L66.10-18.30Q67.77-17.55 68.93-16.23L68.93-16.23L68.93-16.23Q70.09-14.92 70.71-13.15L70.71-13.15L70.71-13.15Q71.32-11.38 71.32-9.35zM65.79-9.35L65.79-9.35L65.79-9.35Q65.79-10.05 65.72-10.85L65.72-10.85L65.72-10.85Q65.65-11.65 65.47-12.44L65.47-12.44L65.47-12.44Q65.29-13.23 64.98-13.95L64.98-13.95L64.98-13.95Q64.66-14.68 64.18-15.24L64.18-15.24L64.18-15.24Q63.70-15.79 63.01-16.12L63.01-16.12L63.01-16.12Q62.33-16.45 61.42-16.45L61.42-16.45L61.42-16.45Q60.49-16.45 59.80-16.13L59.80-16.13L59.80-16.13Q59.12-15.81 58.63-15.25L58.63-15.25L58.63-15.25Q58.14-14.70 57.82-13.98L57.82-13.98L57.82-13.98Q57.51-13.26 57.33-12.47L57.33-12.47L57.33-12.47Q57.15-11.68 57.08-10.88L57.08-10.88L57.08-10.88Q57.01-10.07 57.01-9.35L57.01-9.35L57.01-9.35Q57.01-8.70 57.11-7.92L57.11-7.92L57.11-7.92Q57.20-7.14 57.41-6.35L57.41-6.35L57.41-6.35Q57.62-5.56 57.96-4.82L57.96-4.82L57.96-4.82Q58.30-4.08 58.79-3.50L58.79-3.50L58.79-3.50Q59.28-2.92 59.93-2.57L59.93-2.57L59.93-2.57Q60.59-2.22 61.42-2.22L61.42-2.22L61.42-2.22Q62.34-2.22 63.02-2.55L63.02-2.55L63.02-2.55Q63.70-2.88 64.18-3.44L64.18-3.44L64.18-3.44Q64.66-4.00 64.98-4.72L64.98-4.72L64.98-4.72Q65.29-5.45 65.47-6.24L65.47-6.24L65.47-6.24Q65.65-7.03 65.72-7.83L65.72-7.83L65.72-7.83Q65.79-8.64 65.79-9.35" fill="#ff3067" stroke="none" stroke-width="none" transform="translate(-122.01666259765625,9.880488844651444)" style="fill: rgb(255, 48, 103);"></path></g><g class="path" style="transform: matrix(1, 0, 0, 1, 0, 0); transform-origin: -44.4567px -13.2195px 0px; animation: 3.7037s linear -0.216524s infinite normal forwards running bounce-47a4c70d-9b0f-4429-bbeb-8e6572b54a15;"><path d="M80.53-23.11L80.53-23.11L80.53-23.11Q80.53-22.49 80.30-21.95L80.30-21.95L80.30-21.95Q80.07-21.40 79.66-21.00L79.66-21.00L79.66-21.00Q79.26-20.59 78.71-20.36L78.71-20.36L78.71-20.36Q78.17-20.13 77.55-20.13L77.55-20.13L77.55-20.13Q76.94-20.13 76.40-20.36L76.40-20.36L76.40-20.36Q75.86-20.59 75.46-21.00L75.46-21.00L75.46-21.00Q75.06-21.40 74.82-21.95L74.82-21.95L74.82-21.95Q74.59-22.49 74.59-23.11L74.59-23.11L74.59-23.11Q74.59-23.72 74.82-24.26L74.82-24.26L74.82-24.26Q75.06-24.80 75.46-25.20L75.46-25.20L75.46-25.20Q75.86-25.60 76.40-25.84L76.40-25.84L76.40-25.84Q76.94-26.07 77.55-26.07L77.55-26.07L77.55-26.07Q78.17-26.07 78.71-25.84L78.71-25.84L78.71-25.84Q79.26-25.60 79.66-25.20L79.66-25.20L79.66-25.20Q80.07-24.80 80.30-24.26L80.30-24.26L80.30-24.26Q80.53-23.72 80.53-23.11" fill="#ff3067" stroke="none" stroke-width="none" transform="translate(-122.01666259765625,9.880488844651444)" style="fill: rgb(255, 48, 103);"></path></g><g class="path" style="transform: matrix(1, 0, 0, 1, 0, 0); transform-origin: -44.4567px 0.585488px 0px; animation: 3.7037s linear -0.541311s infinite normal forwards running bounce-47a4c70d-9b0f-4429-bbeb-8e6572b54a15;"><path d="M80.29-18.59L80.29 0L74.83 0L74.83-18.59L80.29-18.59" fill="#ff3067" stroke="none" stroke-width="none" transform="translate(-122.01666259765625,9.880488844651444)" style="fill: rgb(255, 48, 103);"></path></g><g class="path" style="transform: matrix(1, 0, 0, 1, 0, 0); transform-origin: -31.7567px -2.84951px 0px; animation: 3.7037s linear 0s infinite normal forwards running bounce-47a4c70d-9b0f-4429-bbeb-8e6572b54a15;"><path d="M91.86-16.45L91.86 0L86.40 0L86.40-16.45L83.02-16.45L83.02-18.61L86.40-18.61L86.40-25.46L91.86-25.46L91.86-18.61L97.50-18.61L97.50-16.45L91.86-16.45" fill="#ff3067" stroke="none" stroke-width="none" transform="translate(-122.01666259765625,9.880488844651444)" style="fill: rgb(255, 48, 103);"></path></g><g class="path" style="transform: matrix(1, 0, 0, 1, 0, 0); transform-origin: -3.95666px -1.71951px 0px; animation: 3.7037s linear -0.48718s infinite normal forwards running bounce-47a4c70d-9b0f-4429-bbeb-8e6572b54a15;"><path d="M126.39-2.96L126.39 0L109.73 0L109.73-23.20L126.39-23.20L126.39-20.24L116.13-20.24L116.13-13.07L124.06-13.07L124.06-10.12L116.13-10.12L116.13-2.96L126.39-2.96" fill="#ff3067" stroke="none" stroke-width="none" transform="translate(-122.01666259765625,9.880488844651444)" style="fill: rgb(255, 48, 103);"></path></g><g class="path" style="transform: matrix(1, 0, 0, 1, 0, 0); transform-origin: 15.2183px 0.575488px 0px; animation: 3.7037s linear -0.378917s infinite normal forwards running bounce-47a4c70d-9b0f-4429-bbeb-8e6572b54a15;"><path d="M139.30-10.26L146.45 0L141.01 0L136.45-6.53L131.79 0L128.02 0L135.03-8.57L128.02-18.61L133.47-18.61L137.88-12.29L142.68-18.61L146.45-18.61L139.30-10.26" fill="#ff3067" stroke="none" stroke-width="none" transform="translate(-122.01666259765625,9.880488844651444)" style="fill: rgb(255, 48, 103);"></path></g><g class="path" style="transform: matrix(1, 0, 0, 1, 0, 0); transform-origin: 36.8433px 4.64549px 0px; animation: 3.7037s linear -0.270655s infinite normal forwards running bounce-47a4c70d-9b0f-4429-bbeb-8e6572b54a15;"><path d="M168.75-9.35L168.75-9.35L168.75-9.35Q168.75-7.32 168.14-5.54L168.14-5.54L168.14-5.54Q167.53-3.77 166.37-2.46L166.37-2.46L166.37-2.46Q165.21-1.14 163.53-0.39L163.53-0.39L163.53-0.39Q161.86 0.37 159.73 0.37L159.73 0.37L159.73 0.37Q158.10 0.37 156.74-0.27L156.74-0.27L156.74-0.27Q155.38-0.90 154.41-2.22L154.41-2.22L154.41 8.59L148.97 8.59L148.97-18.61L151.06-18.61L153.48-14.57L153.48-14.57Q153.83-15.58 154.45-16.41L154.45-16.41L154.45-16.41Q155.07-17.24 155.89-17.83L155.89-17.83L155.89-17.83Q156.70-18.42 157.68-18.74L157.68-18.74L157.68-18.74Q158.65-19.06 159.73-19.06L159.73-19.06L159.73-19.06Q161.86-19.06 163.53-18.30L163.53-18.30L163.53-18.30Q165.21-17.55 166.37-16.23L166.37-16.23L166.37-16.23Q167.53-14.92 168.14-13.15L168.14-13.15L168.14-13.15Q168.75-11.38 168.75-9.35zM163.23-9.35L163.23-9.35L163.23-9.35Q163.23-10.05 163.16-10.85L163.16-10.85L163.16-10.85Q163.08-11.65 162.91-12.44L162.91-12.44L162.91-12.44Q162.73-13.23 162.41-13.95L162.41-13.95L162.41-13.95Q162.10-14.68 161.62-15.24L161.62-15.24L161.62-15.24Q161.13-15.79 160.45-16.12L160.45-16.12L160.45-16.12Q159.76-16.45 158.86-16.45L158.86-16.45L158.86-16.45Q157.93-16.45 157.24-16.13L157.24-16.13L157.24-16.13Q156.56-15.81 156.07-15.25L156.07-15.25L156.07-15.25Q155.57-14.70 155.26-13.98L155.26-13.98L155.26-13.98Q154.95-13.26 154.77-12.47L154.77-12.47L154.77-12.47Q154.59-11.68 154.52-10.88L154.52-10.88L154.52-10.88Q154.45-10.07 154.45-9.35L154.45-9.35L154.45-9.35Q154.45-8.70 154.54-7.92L154.54-7.92L154.54-7.92Q154.64-7.14 154.85-6.35L154.85-6.35L154.85-6.35Q155.06-5.56 155.40-4.82L155.40-4.82L155.40-4.82Q155.73-4.08 156.23-3.50L156.23-3.50L156.23-3.50Q156.72-2.92 157.37-2.57L157.37-2.57L157.37-2.57Q158.02-2.22 158.86-2.22L158.86-2.22L158.86-2.22Q159.78-2.22 160.46-2.55L160.46-2.55L160.46-2.55Q161.13-2.88 161.62-3.44L161.62-3.44L161.62-3.44Q162.10-4.00 162.41-4.72L162.41-4.72L162.41-4.72Q162.73-5.45 162.91-6.24L162.91-6.24L162.91-6.24Q163.08-7.03 163.16-7.83L163.16-7.83L163.16-7.83Q163.23-8.64 163.23-9.35" fill="#ff3067" stroke="none" stroke-width="none" transform="translate(-122.01666259765625,9.880488844651444)" style="fill: rgb(255, 48, 103);"></path></g><g class="path" style="transform: matrix(1, 0, 0, 1, 0, 0); transform-origin: 58.1433px 0.350489px 0px; animation: 3.7037s linear -0.433048s infinite normal forwards running bounce-47a4c70d-9b0f-4429-bbeb-8e6572b54a15;"><path d="M188.07-16.97L188.07-16.97L185.01-11.89L185.01-11.89Q184.82-12.54 184.51-13.34L184.51-13.34L184.51-13.34Q184.21-14.15 183.76-14.85L183.76-14.85L183.76-14.85Q183.30-15.55 182.68-16.02L182.68-16.02L182.68-16.02Q182.05-16.50 181.23-16.50L181.23-16.50L181.23-16.50Q180.47-16.50 179.91-16.11L179.91-16.11L179.91-16.11Q179.36-15.73 178.97-15.11L178.97-15.11L178.97-15.11Q178.58-14.49 178.33-13.70L178.33-13.70L178.33-13.70Q178.08-12.92 177.95-12.13L177.95-12.13L177.95-12.13Q177.81-11.33 177.76-10.59L177.76-10.59L177.76-10.59Q177.71-9.86 177.71-9.33L177.71-9.33L177.71 0L172.25 0L172.25-18.61L174.35-18.61L176.55-14.28L176.55-14.28Q177.00-15.32 177.58-16.20L177.58-16.20L177.58-16.20Q178.16-17.08 178.92-17.72L178.92-17.72L178.92-17.72Q179.68-18.35 180.64-18.71L180.64-18.71L180.64-18.71Q181.60-19.06 182.81-19.06L182.81-19.06L182.81-19.06Q183.43-19.06 184.21-18.96L184.21-18.96L184.21-18.96Q184.98-18.85 185.72-18.60L185.72-18.60L185.72-18.60Q186.46-18.35 187.09-17.95L187.09-17.95L187.09-17.95Q187.72-17.55 188.07-16.97" fill="#ff3067" stroke="none" stroke-width="none" transform="translate(-122.01666259765625,9.880488844651444)" style="fill: rgb(255, 48, 103);"></path></g><g class="path" style="transform: matrix(1, 0, 0, 1, 0, 0); transform-origin: 76.2533px 0.535489px 0px; animation: 3.7037s linear -0.108262s infinite normal forwards running bounce-47a4c70d-9b0f-4429-bbeb-8e6572b54a15;"><path d="M194.34-8.83L194.34-8.83L194.34-8.83Q195.34-8.60 196.34-8.48L196.34-8.48L196.34-8.48Q197.34-8.35 198.35-8.35L198.35-8.35L198.35-8.35Q199.42-8.35 200.33-8.55L200.33-8.55L200.33-8.55Q201.24-8.75 201.91-9.22L201.91-9.22L201.91-9.22Q202.58-9.70 202.96-10.49L202.96-10.49L202.96-10.49Q203.35-11.28 203.35-12.46L203.35-12.46L203.35-12.46Q203.35-13.41 203.09-14.20L203.09-14.20L203.09-14.20Q202.83-14.99 202.33-15.55L202.33-15.55L202.33-15.55Q201.82-16.11 201.08-16.43L201.08-16.43L201.08-16.43Q200.34-16.74 199.35-16.74L199.35-16.74L199.35-16.74Q198.44-16.74 197.70-16.40L197.70-16.40L197.70-16.40Q196.97-16.06 196.41-15.49L196.41-15.49L196.41-15.49Q195.86-14.92 195.46-14.16L195.46-14.16L195.46-14.16Q195.07-13.41 194.81-12.58L194.81-12.58L194.81-12.58Q194.55-11.76 194.44-10.92L194.44-10.92L194.44-10.92Q194.33-10.09 194.33-9.35L194.33-9.35L194.33-9.35Q194.33-9.22 194.33-9.09L194.33-9.09L194.33-9.09Q194.33-8.96 194.34-8.83zM207.76-12.50L207.76-12.50L207.76-12.50Q207.76-11.36 207.39-10.47L207.39-10.47L207.39-10.47Q207.02-9.57 206.39-8.89L206.39-8.89L206.39-8.89Q205.75-8.22 204.91-7.75L204.91-7.75L204.91-7.75Q204.07-7.28 203.12-6.99L203.12-6.99L203.12-6.99Q202.17-6.69 201.17-6.56L201.17-6.56L201.17-6.56Q200.16-6.43 199.21-6.43L199.21-6.43L199.21-6.43Q198-6.43 196.82-6.60L196.82-6.60L196.82-6.60Q195.65-6.77 194.50-7.14L194.50-7.14L194.50-7.14Q194.68-6.07 195.07-5.12L195.07-5.12L195.07-5.12Q195.45-4.16 196.10-3.44L196.10-3.44L196.10-3.44Q196.74-2.72 197.69-2.30L197.69-2.30L197.69-2.30Q198.63-1.89 199.92-1.89L199.92-1.89L199.92-1.89Q200.77-1.89 201.54-2.14L201.54-2.14L201.54-2.14Q202.32-2.40 202.96-2.87L202.96-2.87L202.96-2.87Q203.61-3.34 204.10-3.98L204.10-3.98L204.10-3.98Q204.59-4.62 204.90-5.41L204.90-5.41L207.25-4.54L207.25-4.54Q206.72-3.27 205.79-2.34L205.79-2.34L205.79-2.34Q204.86-1.42 203.70-0.81L203.70-0.81L203.70-0.81Q202.53-0.21 201.21 0.08L201.21 0.08L201.21 0.08Q199.90 0.37 198.61 0.37L198.61 0.37L198.61 0.37Q196.49 0.37 194.68-0.35L194.68-0.35L194.68-0.35Q192.88-1.06 191.57-2.35L191.57-2.35L191.57-2.35Q190.27-3.64 189.52-5.43L189.52-5.43L189.52-5.43Q188.78-7.22 188.78-9.35L188.78-9.35L188.78-9.35Q188.78-11.47 189.52-13.26L189.52-13.26L189.52-13.26Q190.27-15.05 191.57-16.34L191.57-16.34L191.57-16.34Q192.88-17.63 194.68-18.34L194.68-18.34L194.68-18.34Q196.49-19.06 198.61-19.06L198.61-19.06L198.61-19.06Q199.64-19.06 200.72-18.92L200.72-18.92L200.72-18.92Q201.80-18.77 202.82-18.46L202.82-18.46L202.82-18.46Q203.83-18.14 204.74-17.64L204.74-17.64L204.74-17.64Q205.64-17.14 206.31-16.41L206.31-16.41L206.31-16.41Q206.98-15.68 207.37-14.71L207.37-14.71L207.37-14.71Q207.76-13.74 207.76-12.50" fill="#ff3067" stroke="none" stroke-width="none" transform="translate(-122.01666259765625,9.880488844651444)" style="fill: rgb(255, 48, 103);"></path></g><g class="path" style="transform: matrix(1, 0, 0, 1, 0, 0); transform-origin: 96.5683px 0.535489px 0px; animation: 3.7037s linear -0.162393s infinite normal forwards running bounce-47a4c70d-9b0f-4429-bbeb-8e6572b54a15;"><path d="M227.18-5.95L227.18-5.95L227.18-5.95Q227.18-4.72 226.83-3.77L226.83-3.77L226.83-3.77Q226.47-2.82 225.86-2.12L225.86-2.12L225.86-2.12Q225.25-1.42 224.41-0.94L224.41-0.94L224.41-0.94Q223.57-0.47 222.61-0.18L222.61-0.18L222.61-0.18Q221.65 0.11 220.61 0.24L220.61 0.24L220.61 0.24Q219.56 0.37 218.53 0.37L218.53 0.37L218.53 0.37Q217.14 0.37 216.08 0.19L216.08 0.19L216.08 0.19Q215.02 0.02 214.05-0.38L214.05-0.38L214.05-0.38Q213.08-0.77 212.12-1.40L212.12-1.40L212.12-1.40Q211.16-2.03 209.99-2.93L209.99-2.93L213.16-5.53L213.16-5.53Q213.60-4.71 214.31-4.04L214.31-4.04L214.31-4.04Q215.03-3.37 215.81-2.88L215.81-2.88L215.81-2.88Q216.58-2.40 217.30-2.14L217.30-2.14L217.30-2.14Q218.03-1.89 218.48-1.89L218.48-1.89L218.48-1.89Q218.85-1.89 219.32-1.91L219.32-1.91L219.32-1.91Q219.79-1.93 220.27-2.01L220.27-2.01L220.27-2.01Q220.75-2.08 221.22-2.22L221.22-2.22L221.22-2.22Q221.69-2.37 222.05-2.62L222.05-2.62L222.05-2.62Q222.41-2.87 222.63-3.25L222.63-3.25L222.63-3.25Q222.85-3.63 222.85-4.16L222.85-4.16L222.85-4.16Q222.85-4.71 222.56-5.12L222.56-5.12L222.56-5.12Q222.28-5.53 221.83-5.83L221.83-5.83L221.83-5.83Q221.38-6.14 220.80-6.35L220.80-6.35L220.80-6.35Q220.22-6.56 219.63-6.72L219.63-6.72L219.63-6.72Q219.04-6.88 218.50-7.00L218.50-7.00L218.50-7.00Q217.95-7.12 217.55-7.23L217.55-7.23L217.55-7.23Q216.80-7.44 215.98-7.66L215.98-7.66L215.98-7.66Q215.16-7.88 214.35-8.16L214.35-8.16L214.35-8.16Q213.55-8.44 212.82-8.83L212.82-8.83L212.82-8.83Q212.08-9.22 211.53-9.76L211.53-9.76L211.53-9.76Q210.97-10.30 210.64-11.03L210.64-11.03L210.64-11.03Q210.31-11.76 210.31-12.75L210.31-12.75L210.31-12.75Q210.31-14.55 211.03-15.77L211.03-15.77L211.03-15.77Q211.74-16.98 212.92-17.72L212.92-17.72L212.92-17.72Q214.10-18.45 215.60-18.76L215.60-18.76L215.60-18.76Q217.09-19.06 218.64-19.06L218.64-19.06L218.64-19.06Q219.70-19.06 220.88-18.84L220.88-18.84L220.88-18.84Q222.06-18.63 223.17-18.20L223.17-18.20L223.17-18.20Q224.28-17.77 225.25-17.16L225.25-17.16L225.25-17.16Q226.21-16.55 226.86-15.76L226.86-15.76L223.68-13.15L223.68-13.15Q223.33-14.12 222.76-14.81L222.76-14.81L222.76-14.81Q222.19-15.50 221.52-15.94L221.52-15.94L221.52-15.94Q220.85-16.39 220.15-16.60L220.15-16.60L220.15-16.60Q219.45-16.81 218.85-16.81L218.85-16.81L218.85-16.81Q218.27-16.81 217.55-16.76L217.55-16.76L217.55-16.76Q216.82-16.71 216.18-16.48L216.18-16.48L216.18-16.48Q215.55-16.26 215.10-15.80L215.10-15.80L215.10-15.80Q214.66-15.34 214.66-14.53L214.66-14.53L214.66-14.53Q214.66-13.95 214.93-13.54L214.93-13.54L214.93-13.54Q215.19-13.13 215.63-12.83L215.63-12.83L215.63-12.83Q216.06-12.54 216.62-12.33L216.62-12.33L216.62-12.33Q217.17-12.13 217.75-11.98L217.75-11.98L217.75-11.98Q218.33-11.83 218.88-11.71L218.88-11.71L218.88-11.71Q219.43-11.60 219.87-11.47L219.87-11.47L219.87-11.47Q220.61-11.26 221.44-11.05L221.44-11.05L221.44-11.05Q222.27-10.83 223.07-10.55L223.07-10.55L223.07-10.55Q223.88-10.26 224.63-9.89L224.63-9.89L224.63-9.89Q225.38-9.51 225.94-8.96L225.94-8.96L225.94-8.96Q226.50-8.41 226.84-7.68L226.84-7.68L226.84-7.68Q227.18-6.94 227.18-5.95" fill="#ff3067" stroke="none" stroke-width="none" transform="translate(-122.01666259765625,9.880488844651444)" style="fill: rgb(255, 48, 103);"></path></g><g class="path" style="transform: matrix(1, 0, 0, 1, 0, 0); transform-origin: 116.018px 0.535489px 0px; animation: 3.7037s linear -0.0541311s infinite normal forwards running bounce-47a4c70d-9b0f-4429-bbeb-8e6572b54a15;"><path d="M246.63-5.95L246.63-5.95L246.63-5.95Q246.63-4.72 246.28-3.77L246.28-3.77L246.28-3.77Q245.92-2.82 245.31-2.12L245.31-2.12L245.31-2.12Q244.70-1.42 243.86-0.94L243.86-0.94L243.86-0.94Q243.02-0.47 242.06-0.18L242.06-0.18L242.06-0.18Q241.10 0.11 240.06 0.24L240.06 0.24L240.06 0.24Q239.01 0.37 237.98 0.37L237.98 0.37L237.98 0.37Q236.59 0.37 235.53 0.19L235.53 0.19L235.53 0.19Q234.46 0.02 233.50-0.38L233.50-0.38L233.50-0.38Q232.53-0.77 231.57-1.40L231.57-1.40L231.57-1.40Q230.61-2.03 229.44-2.93L229.44-2.93L232.61-5.53L232.61-5.53Q233.05-4.71 233.76-4.04L233.76-4.04L233.76-4.04Q234.48-3.37 235.25-2.88L235.25-2.88L235.25-2.88Q236.03-2.40 236.75-2.14L236.75-2.14L236.75-2.14Q237.48-1.89 237.93-1.89L237.93-1.89L237.93-1.89Q238.30-1.89 238.77-1.91L238.77-1.91L238.77-1.91Q239.23-1.93 239.72-2.01L239.72-2.01L239.72-2.01Q240.20-2.08 240.67-2.22L240.67-2.22L240.67-2.22Q241.14-2.37 241.50-2.62L241.50-2.62L241.50-2.62Q241.86-2.87 242.08-3.25L242.08-3.25L242.08-3.25Q242.30-3.63 242.30-4.16L242.30-4.16L242.30-4.16Q242.30-4.71 242.01-5.12L242.01-5.12L242.01-5.12Q241.73-5.53 241.28-5.83L241.28-5.83L241.28-5.83Q240.83-6.14 240.25-6.35L240.25-6.35L240.25-6.35Q239.67-6.56 239.08-6.72L239.08-6.72L239.08-6.72Q238.49-6.88 237.94-7.00L237.94-7.00L237.94-7.00Q237.40-7.12 236.99-7.23L236.99-7.23L236.99-7.23Q236.25-7.44 235.43-7.66L235.43-7.66L235.43-7.66Q234.61-7.88 233.80-8.16L233.80-8.16L233.80-8.16Q233.00-8.44 232.26-8.83L232.26-8.83L232.26-8.83Q231.53-9.22 230.98-9.76L230.98-9.76L230.98-9.76Q230.42-10.30 230.09-11.03L230.09-11.03L230.09-11.03Q229.76-11.76 229.76-12.75L229.76-12.75L229.76-12.75Q229.76-14.55 230.48-15.77L230.48-15.77L230.48-15.77Q231.19-16.98 232.37-17.72L232.37-17.72L232.37-17.72Q233.55-18.45 235.04-18.76L235.04-18.76L235.04-18.76Q236.54-19.06 238.09-19.06L238.09-19.06L238.09-19.06Q239.15-19.06 240.33-18.84L240.33-18.84L240.33-18.84Q241.51-18.63 242.62-18.20L242.62-18.20L242.62-18.20Q243.73-17.77 244.70-17.16L244.70-17.16L244.70-17.16Q245.66-16.55 246.31-15.76L246.31-15.76L243.13-13.15L243.13-13.15Q242.78-14.12 242.21-14.81L242.21-14.81L242.21-14.81Q241.63-15.50 240.97-15.94L240.97-15.94L240.97-15.94Q240.30-16.39 239.60-16.60L239.60-16.60L239.60-16.60Q238.90-16.81 238.30-16.81L238.30-16.81L238.30-16.81Q237.72-16.81 236.99-16.76L236.99-16.76L236.99-16.76Q236.27-16.71 235.63-16.48L235.63-16.48L235.63-16.48Q235.00-16.26 234.55-15.80L234.55-15.80L234.55-15.80Q234.11-15.34 234.11-14.53L234.11-14.53L234.11-14.53Q234.11-13.95 234.38-13.54L234.38-13.54L234.38-13.54Q234.64-13.13 235.08-12.83L235.08-12.83L235.08-12.83Q235.51-12.54 236.07-12.33L236.07-12.33L236.07-12.33Q236.62-12.13 237.20-11.98L237.20-11.98L237.20-11.98Q237.78-11.83 238.33-11.71L238.33-11.71L238.33-11.71Q238.88-11.60 239.31-11.47L239.31-11.47L239.31-11.47Q240.06-11.26 240.89-11.05L240.89-11.05L240.89-11.05Q241.72-10.83 242.52-10.55L242.52-10.55L242.52-10.55Q243.33-10.26 244.08-9.89L244.08-9.89L244.08-9.89Q244.83-9.51 245.39-8.96L245.39-8.96L245.39-8.96Q245.95-8.41 246.29-7.68L246.29-7.68L246.29-7.68Q246.63-6.94 246.63-5.95" fill="#ff3067" stroke="none" stroke-width="none" transform="translate(-122.01666259765625,9.880488844651444)" style="fill: rgb(255, 48, 103);"></path></g></g>
</g>
</g>
<style id="bounce-47a4c70d-9b0f-4429-bbeb-8e6572b54a15" data-anikit="">@keyframes bounce-47a4c70d-9b0f-4429-bbeb-8e6572b54a15
{
  0% {
    animation-timing-function: cubic-bezier(0.1361,0.2514,0.2175,0.8786);
    transform: translate(0,0px) scaleY(1);
  }
  37% {
    animation-timing-function: cubic-bezier(0.7674,0.1844,0.8382,0.7157);
    transform: translate(0,-39.96px) scaleY(1);
  }
  72% {
    animation-timing-function: cubic-bezier(0.1118,0.2149,0.2172,0.941);
    transform: translate(0,0px) scaleY(1);
  }
  87% {
    animation-timing-function: cubic-bezier(0.7494,0.2259,0.8209,0.6963);
    transform: translate(0,19.900000000000002px) scaleY(0.602);
  }
  100% {
    transform: translate(0,0px) scaleY(1);
  }
}</style></svg>